<mxfile host="app.diagrams.net" modified="2023-12-30T18:10:03.733Z" agent="Mozilla/5.0 (Windows NT 10.0; Win64; x64; rv:121.0) Gecko/20100101 Firefox/121.0" etag="ZewpGuuXqsvh578iUJCr" version="22.1.15" type="github">
  <diagram name="Seite-1" id="Uph73gleEDyKAeIzliLi">
    <mxGraphModel dx="1434" dy="774" grid="1" gridSize="10" guides="1" tooltips="1" connect="1" arrows="1" fold="1" page="1" pageScale="1" pageWidth="583" pageHeight="413" math="0" shadow="0">
      <root>
        <mxCell id="0" />
        <mxCell id="1" parent="0" />
        <mxCell id="LmvUL_w-2qDvA-CHAG-q-24" value="" style="rounded=1;whiteSpace=wrap;html=1;fillColor=none;strokeWidth=4;" vertex="1" parent="1">
          <mxGeometry x="200" y="30" width="440" height="660" as="geometry" />
        </mxCell>
        <mxCell id="LmvUL_w-2qDvA-CHAG-q-5" style="edgeStyle=orthogonalEdgeStyle;rounded=0;orthogonalLoop=1;jettySize=auto;html=1;exitX=0.5;exitY=1;exitDx=0;exitDy=0;entryX=0.5;entryY=0;entryDx=0;entryDy=0;" edge="1" parent="1" source="LmvUL_w-2qDvA-CHAG-q-3" target="LmvUL_w-2qDvA-CHAG-q-4">
          <mxGeometry relative="1" as="geometry" />
        </mxCell>
        <mxCell id="LmvUL_w-2qDvA-CHAG-q-3" value="Token von aktueller Position entfernen" style="rounded=1;whiteSpace=wrap;html=1;" vertex="1" parent="1">
          <mxGeometry x="330" y="120" width="130" height="60" as="geometry" />
        </mxCell>
        <mxCell id="LmvUL_w-2qDvA-CHAG-q-7" style="edgeStyle=orthogonalEdgeStyle;rounded=0;orthogonalLoop=1;jettySize=auto;html=1;exitX=0.5;exitY=1;exitDx=0;exitDy=0;entryX=0.5;entryY=0;entryDx=0;entryDy=0;" edge="1" parent="1" source="LmvUL_w-2qDvA-CHAG-q-4" target="LmvUL_w-2qDvA-CHAG-q-6">
          <mxGeometry relative="1" as="geometry" />
        </mxCell>
        <mxCell id="LmvUL_w-2qDvA-CHAG-q-4" value="Token auf neue Position setzen" style="rounded=1;whiteSpace=wrap;html=1;" vertex="1" parent="1">
          <mxGeometry x="330" y="232" width="130" height="60" as="geometry" />
        </mxCell>
        <mxCell id="LmvUL_w-2qDvA-CHAG-q-17" style="edgeStyle=orthogonalEdgeStyle;rounded=0;orthogonalLoop=1;jettySize=auto;html=1;exitX=0.5;exitY=1;exitDx=0;exitDy=0;entryX=0.5;entryY=0;entryDx=0;entryDy=0;" edge="1" parent="1" source="LmvUL_w-2qDvA-CHAG-q-6" target="LmvUL_w-2qDvA-CHAG-q-13">
          <mxGeometry relative="1" as="geometry" />
        </mxCell>
        <mxCell id="LmvUL_w-2qDvA-CHAG-q-6" value="" style="rhombus;whiteSpace=wrap;html=1;" vertex="1" parent="1">
          <mxGeometry x="370" y="340" width="50" height="50" as="geometry" />
        </mxCell>
        <mxCell id="LmvUL_w-2qDvA-CHAG-q-8" value="&lt;div style=&quot;font-size: 14px;&quot;&gt;&lt;font style=&quot;font-size: 14px;&quot;&gt;Sind alle Tokens&amp;nbsp;&lt;/font&gt;&lt;/div&gt;&lt;div style=&quot;font-size: 14px;&quot;&gt;&lt;font style=&quot;font-size: 14px;&quot;&gt;vertikal/horizontal&amp;nbsp;&lt;/font&gt;&lt;/div&gt;&lt;div style=&quot;font-size: 14px;&quot;&gt;&lt;font style=&quot;font-size: 14px;&quot;&gt;verbunden?&lt;/font&gt;&lt;/div&gt;" style="text;html=1;align=center;verticalAlign=middle;resizable=0;points=[];autosize=1;strokeColor=none;fillColor=none;" vertex="1" parent="1">
          <mxGeometry x="230" y="335" width="140" height="60" as="geometry" />
        </mxCell>
        <mxCell id="LmvUL_w-2qDvA-CHAG-q-15" style="edgeStyle=orthogonalEdgeStyle;rounded=0;orthogonalLoop=1;jettySize=auto;html=1;exitX=0.5;exitY=1;exitDx=0;exitDy=0;entryX=0.5;entryY=0;entryDx=0;entryDy=0;" edge="1" parent="1" source="LmvUL_w-2qDvA-CHAG-q-10" target="LmvUL_w-2qDvA-CHAG-q-11">
          <mxGeometry relative="1" as="geometry" />
        </mxCell>
        <mxCell id="LmvUL_w-2qDvA-CHAG-q-10" value="Token von neuer Position entfernen" style="rounded=1;whiteSpace=wrap;html=1;" vertex="1" parent="1">
          <mxGeometry x="510" y="330" width="110" height="60" as="geometry" />
        </mxCell>
        <mxCell id="LmvUL_w-2qDvA-CHAG-q-16" style="edgeStyle=orthogonalEdgeStyle;rounded=0;orthogonalLoop=1;jettySize=auto;html=1;exitX=0.5;exitY=1;exitDx=0;exitDy=0;entryX=0.5;entryY=0;entryDx=0;entryDy=0;" edge="1" parent="1" source="LmvUL_w-2qDvA-CHAG-q-11" target="LmvUL_w-2qDvA-CHAG-q-12">
          <mxGeometry relative="1" as="geometry" />
        </mxCell>
        <mxCell id="LmvUL_w-2qDvA-CHAG-q-11" value="Token auf alte Position setzen" style="rounded=1;whiteSpace=wrap;html=1;" vertex="1" parent="1">
          <mxGeometry x="510" y="430" width="110" height="60" as="geometry" />
        </mxCell>
        <mxCell id="LmvUL_w-2qDvA-CHAG-q-23" style="edgeStyle=orthogonalEdgeStyle;rounded=0;orthogonalLoop=1;jettySize=auto;html=1;exitX=0.5;exitY=1;exitDx=0;exitDy=0;entryX=1;entryY=0.5;entryDx=0;entryDy=0;" edge="1" parent="1" source="LmvUL_w-2qDvA-CHAG-q-12" target="LmvUL_w-2qDvA-CHAG-q-20">
          <mxGeometry relative="1" as="geometry" />
        </mxCell>
        <mxCell id="LmvUL_w-2qDvA-CHAG-q-12" value="Spielzug fehlgeschlagen" style="rounded=1;whiteSpace=wrap;html=1;" vertex="1" parent="1">
          <mxGeometry x="510" y="520" width="110" height="60" as="geometry" />
        </mxCell>
        <mxCell id="LmvUL_w-2qDvA-CHAG-q-22" style="edgeStyle=orthogonalEdgeStyle;rounded=0;orthogonalLoop=1;jettySize=auto;html=1;exitX=0.5;exitY=1;exitDx=0;exitDy=0;entryX=0.5;entryY=0;entryDx=0;entryDy=0;" edge="1" parent="1" source="LmvUL_w-2qDvA-CHAG-q-13" target="LmvUL_w-2qDvA-CHAG-q-20">
          <mxGeometry relative="1" as="geometry" />
        </mxCell>
        <mxCell id="LmvUL_w-2qDvA-CHAG-q-13" value="Ausgabe: Sprung von alter Position zu neuer Position" style="rounded=1;whiteSpace=wrap;html=1;" vertex="1" parent="1">
          <mxGeometry x="340" y="520" width="110" height="60" as="geometry" />
        </mxCell>
        <mxCell id="LmvUL_w-2qDvA-CHAG-q-14" style="edgeStyle=orthogonalEdgeStyle;rounded=0;orthogonalLoop=1;jettySize=auto;html=1;exitX=1;exitY=0.5;exitDx=0;exitDy=0;entryX=0.003;entryY=0.58;entryDx=0;entryDy=0;entryPerimeter=0;" edge="1" parent="1" source="LmvUL_w-2qDvA-CHAG-q-6" target="LmvUL_w-2qDvA-CHAG-q-10">
          <mxGeometry relative="1" as="geometry" />
        </mxCell>
        <mxCell id="LmvUL_w-2qDvA-CHAG-q-18" value="Ja" style="text;html=1;align=center;verticalAlign=middle;resizable=0;points=[];autosize=1;strokeColor=none;fillColor=none;" vertex="1" parent="1">
          <mxGeometry x="390" y="383" width="40" height="30" as="geometry" />
        </mxCell>
        <mxCell id="LmvUL_w-2qDvA-CHAG-q-19" value="Nein" style="text;html=1;align=center;verticalAlign=middle;resizable=0;points=[];autosize=1;strokeColor=none;fillColor=none;" vertex="1" parent="1">
          <mxGeometry x="420" y="340" width="50" height="30" as="geometry" />
        </mxCell>
        <mxCell id="LmvUL_w-2qDvA-CHAG-q-20" value="" style="ellipse;whiteSpace=wrap;html=1;aspect=fixed;" vertex="1" parent="1">
          <mxGeometry x="377.5" y="630" width="35" height="35" as="geometry" />
        </mxCell>
        <mxCell id="LmvUL_w-2qDvA-CHAG-q-21" value="" style="ellipse;whiteSpace=wrap;html=1;aspect=fixed;fillColor=#000000;" vertex="1" parent="1">
          <mxGeometry x="382.5" y="635" width="25" height="25" as="geometry" />
        </mxCell>
        <mxCell id="LmvUL_w-2qDvA-CHAG-q-26" style="edgeStyle=orthogonalEdgeStyle;rounded=0;orthogonalLoop=1;jettySize=auto;html=1;exitX=1;exitY=0.5;exitDx=0;exitDy=0;" edge="1" parent="1" source="LmvUL_w-2qDvA-CHAG-q-2" target="LmvUL_w-2qDvA-CHAG-q-3">
          <mxGeometry relative="1" as="geometry" />
        </mxCell>
        <mxCell id="LmvUL_w-2qDvA-CHAG-q-2" value="&lt;div&gt;toPosition&lt;/div&gt;" style="rounded=1;whiteSpace=wrap;html=1;" vertex="1" parent="1">
          <mxGeometry x="160" y="125" width="90" height="50" as="geometry" />
        </mxCell>
        <mxCell id="LmvUL_w-2qDvA-CHAG-q-27" value="&lt;div style=&quot;font-size: 15px;&quot;&gt;&lt;font style=&quot;font-size: 15px;&quot;&gt;&lt;b&gt;Spielzug &quot;Ziehen&quot;&lt;/b&gt;&lt;/font&gt;&lt;/div&gt;&lt;font style=&quot;font-size: 15px;&quot;&gt;&lt;b&gt;&lt;font style=&quot;font-size: 15px;&quot;&gt;toPosition: Position&lt;/font&gt;&lt;/b&gt;&lt;b&gt;&lt;br&gt;&lt;/b&gt;&lt;/font&gt;" style="text;html=1;align=center;verticalAlign=middle;resizable=0;points=[];autosize=1;strokeColor=none;fillColor=none;" vertex="1" parent="1">
          <mxGeometry x="230" y="40" width="160" height="50" as="geometry" />
        </mxCell>
      </root>
    </mxGraphModel>
  </diagram>
</mxfile>
